<svg viewBox="0 0 28 27" fill="none" xmlns="http://www.w3.org/2000/svg">
    <path d="M0.678131 18.5292C2.70699 21.9282 5.91185 24.5439 9.73125 25.8154C10.5651 25.9679 10.869 25.4532 10.869 25.0112C10.869 24.8282 10.8659 24.5049 10.8618 24.0722C10.857 23.5711 10.8509 22.9233 10.8465 22.1771C6.21058 23.1839 5.23244 19.9425 5.23244 19.9425C4.47429 18.018 3.38156 17.5054 3.38156 17.5054C1.86831 16.471 3.49615 16.4914 3.49615 16.4914C5.16901 16.6101 6.04892 18.2093 6.04892 18.2093C7.53556 20.7559 9.95021 20.0203 10.8997 19.5946C11.0511 18.5173 11.4808 17.7826 11.9576 17.3662C8.25689 16.9457 4.36583 15.5153 4.36583 9.1288C4.36583 7.30963 5.01554 5.82196 6.08166 4.65659C5.90977 4.23505 5.33783 2.54071 6.24434 0.245775C6.24434 0.245775 7.64402 -0.202367 10.8281 1.95444C12.1572 1.58508 13.5834 1.39989 15.0005 1.39375C16.4155 1.39989 17.8418 1.58508 19.1729 1.95444C22.3549 -0.202367 23.7515 0.245775 23.7515 0.245775C24.6611 2.54071 24.0892 4.23505 23.9173 4.65659C24.9855 5.82196 25.6311 7.30963 25.6311 9.1288C25.6311 15.5317 21.7339 16.9406 18.0208 17.3529C18.6194 17.8676 19.1525 18.8846 19.1525 20.4398C19.1525 21.9294 19.1433 23.2268 19.1372 24.0863C19.1342 24.512 19.132 24.8302 19.132 25.0112C19.132 25.4573 19.4318 25.976 20.2779 25.8134C23.3205 24.7977 25.9728 22.9296 27.9504 20.492C24.8947 24.2591 20.2285 26.6667 15 26.6667C8.91218 26.6667 3.58672 23.4027 0.678131 18.5292Z" fill="url(#paint0_linear_0_68)" />
    <defs>
        <linearGradient id="paint0_linear_0_68" x1="1.66658" y1="4.00762e-05" x2="28.3332" y2="24.6667" gradientUnits="userSpaceOnUse">
            <stop stop-color="#2AF598" />
            <stop offset="0.0001" stop-color="#2AEE9B" />
            <stop offset="1" stop-color="#1F34E7" />
        </linearGradient>
    </defs>
</svg>