<svg viewBox="0 0 20 20" fill="none" xmlns="http://www.w3.org/2000/svg">
    <path d="M10 1.80179C12.6701 1.80179 12.9864 1.81199 14.0409 1.8601C15.0158 1.90456 15.5453 2.06747 15.8977 2.20442C16.3645 2.38582 16.6976 2.60252 17.0475 2.95243C17.3975 3.30238 17.6142 3.6355 17.7956 4.10227C17.9325 4.45465 18.0954 4.98414 18.1399 5.95912C18.188 7.01358 18.1982 7.32987 18.1982 9.99995C18.1982 12.6701 18.188 12.9864 18.1399 14.0408C18.0954 15.0158 17.9325 15.5453 17.7956 15.8977C17.6142 16.3644 17.3975 16.6976 17.0476 17.0475C16.6976 17.3974 16.3645 17.6141 15.8977 17.7955C15.5453 17.9325 15.0158 18.0954 14.0409 18.1398C12.9866 18.1879 12.6703 18.1981 10 18.1981C7.32969 18.1981 7.01348 18.1879 5.95914 18.1398C4.98415 18.0954 4.45466 17.9325 4.10229 17.7955C3.63551 17.6141 3.30239 17.3974 2.95248 17.0475C2.60257 16.6976 2.38583 16.3644 2.20443 15.8977C2.06748 15.5453 1.90457 15.0158 1.86011 14.0408C1.812 12.9864 1.8018 12.6701 1.8018 9.99995C1.8018 7.32987 1.812 7.01358 1.86011 5.95912C1.90457 4.98414 2.06748 4.45465 2.20443 4.10227C2.38583 3.6355 2.60253 3.30238 2.95248 2.95247C3.30239 2.60252 3.63551 2.38582 4.10229 2.20442C4.45466 2.06747 4.98415 1.90456 5.95914 1.8601C7.0136 1.81199 7.32989 1.80179 10 1.80179ZM10 0C7.28416 0 6.94362 0.0115115 5.87701 0.0601775C4.81263 0.108724 4.08569 0.277785 3.44962 0.524966C2.79203 0.780522 2.23436 1.12245 1.67839 1.67838C1.12246 2.23435 0.780524 2.79202 0.525007 3.44961C0.277786 4.08568 0.108725 4.81261 0.0601777 5.87699C0.0115116 6.9436 0 7.28414 0 9.99995C0 12.7158 0.0115116 13.0563 0.0601777 14.1229C0.108725 15.1873 0.277786 15.9143 0.525007 16.5503C0.780524 17.2079 1.12246 17.7656 1.67839 18.3216C2.23436 18.8775 2.79203 19.2194 3.44962 19.4749C4.08569 19.7222 4.81263 19.8912 5.87701 19.9398C6.94362 19.9884 7.28416 19.9999 10 19.9999C12.7158 19.9999 13.0564 19.9884 14.123 19.9398C15.1874 19.8912 15.9143 19.7222 16.5504 19.4749C17.208 19.2194 17.7656 18.8775 18.3216 18.3216C18.8775 17.7656 19.2195 17.2079 19.475 16.5503C19.7222 15.9143 19.8913 15.1873 19.9398 14.1229C19.9885 13.0563 20 12.7158 20 9.99995C20 7.28414 19.9885 6.9436 19.9398 5.87699C19.8913 4.81261 19.7222 4.08568 19.475 3.44961C19.2195 2.79202 18.8775 2.23435 18.3216 1.67838C17.7656 1.12245 17.208 0.780522 16.5504 0.524966C15.9143 0.277785 15.1874 0.108724 14.123 0.0601775C13.0564 0.0115115 12.7158 0 10 0Z" fill="url(#paint0_linear_0_83)" />
    <path d="M10.0047 4.86951C7.16857 4.86951 4.86951 7.16856 4.86951 10.0046C4.86951 12.8407 7.16857 15.1397 10.0047 15.1397C12.8407 15.1397 15.1398 12.8407 15.1398 10.0046C15.1398 7.16856 12.8407 4.86951 10.0047 4.86951ZM10.0047 13.3379C8.16368 13.3379 6.67131 11.8456 6.67131 10.0046C6.67131 8.16367 8.16368 6.6713 10.0047 6.6713C11.8456 6.6713 13.338 8.16367 13.338 10.0046C13.338 11.8456 11.8456 13.3379 10.0047 13.3379Z" fill="url(#paint1_linear_0_83)" />
    <path d="M16.5423 4.66346C16.5423 5.32617 16.0051 5.86344 15.3423 5.86344C14.6796 5.86344 14.1423 5.32617 14.1423 4.66346C14.1423 4.00071 14.6796 3.46344 15.3423 3.46344C16.0051 3.46344 16.5423 4.00071 16.5423 4.66346Z" fill="url(#paint2_linear_0_83)" />
    <defs>
        <linearGradient id="paint0_linear_0_83" x1="0.666667" y1="-0.666667" x2="20.6667" y2="19.3333" gradientUnits="userSpaceOnUse">
            <stop stop-color="#2AF598" />
            <stop offset="0.0001" stop-color="#2AEE9B" />
            <stop offset="1" stop-color="#1F34E7" />
        </linearGradient>
        <linearGradient id="paint1_linear_0_83" x1="10.0046" y1="4.86951" x2="10.0046" y2="15.1397" gradientUnits="userSpaceOnUse">
            <stop stop-color="#DF3D92" />
            <stop offset="0.0001" stop-color="#2AEE9B" />
            <stop offset="1" stop-color="#1F34E7" />
        </linearGradient>
        <linearGradient id="paint2_linear_0_83" x1="15.3423" y1="3.46344" x2="15.3423" y2="5.86344" gradientUnits="userSpaceOnUse">
            <stop stop-color="#DF3D92" />
            <stop offset="0.0001" stop-color="#2AEE9B" />
            <stop offset="1" stop-color="#1F34E7" />
        </linearGradient>
    </defs>
</svg>