<svg viewBox="0 0 22 21" fill="none" xmlns="http://www.w3.org/2000/svg">
    <path fill-rule="evenodd" clip-rule="evenodd" d="M4.77475 2.28389C4.77475 3.52898 3.82672 4.5366 2.34415 4.5366C0.919355 4.5366 -0.0286772 3.52898 0.000662254 2.28389C-0.0286772 0.978283 0.919332 0 2.37255 0C3.82669 0 4.74633 0.978283 4.77475 2.28389ZM0.119858 20.8191V6.31621H4.62712V20.8181H0.119858V20.8191Z" fill="url(#paint0_linear_416_259)" />
    <path fill-rule="evenodd" clip-rule="evenodd" d="M8.23974 10.9446C8.23974 9.13566 8.18014 7.5935 8.12054 6.31816H12.0355L12.2436 8.30499H12.3326C12.9258 7.38538 14.4084 5.99268 16.8105 5.99268C19.7757 5.99268 22 7.95016 22 12.219V20.821H17.4927V12.7838C17.4927 10.9144 16.8408 9.63993 15.2097 9.63993C13.9637 9.63993 13.2229 10.4999 12.9267 11.3297C12.8075 11.6268 12.7489 12.0412 12.7489 12.4574V20.821H8.24156V10.9446H8.23974Z" fill="url(#paint1_linear_416_259)" />
    <defs>
        <linearGradient id="paint0_linear_416_259" x1="-2.27886" y1="-3.99963" x2="9.38368" y2="-2.19644" gradientUnits="userSpaceOnUse">
            <stop stop-color="#2AF598" />
            <stop offset="1" stop-color="#1F34E7" />
        </linearGradient>
        <linearGradient id="paint1_linear_416_259" x1="1.49628" y1="3.14395" x2="26.3225" y2="18.8096" gradientUnits="userSpaceOnUse">
            <stop stop-color="#2AF598" />
            <stop offset="1" stop-color="#1F34E7" />
        </linearGradient>
    </defs>
</svg>