<svg viewBox="0 0 20 17" fill="none" xmlns="http://www.w3.org/2000/svg">
    <path fill-rule="evenodd" clip-rule="evenodd" d="M20 2.59056C19.2647 2.9172 18.4734 3.13719 17.6435 3.23651C18.4908 2.72855 19.1414 1.9246 19.4474 0.966665C18.6554 1.4373 17.7761 1.77795 16.8422 1.9626C16.0936 1.16532 15.0263 0.666687 13.8471 0.666687C11.5812 0.666687 9.74401 2.5039 9.74401 4.76975C9.74401 5.09106 9.78068 5.40437 9.85068 5.70502C6.44024 5.53436 3.41711 3.90047 1.39324 1.41797C1.03993 2.02393 0.837944 2.72855 0.837944 3.4805C0.837944 4.90374 1.56123 6.15966 2.66316 6.89561C1.98987 6.87428 1.35791 6.68962 0.803945 6.38231V6.43364C0.803945 8.42217 2.21918 10.0801 4.09506 10.458C3.75108 10.5514 3.38844 10.602 3.01447 10.602C2.74982 10.602 2.4925 10.576 2.24185 10.528C2.76381 12.1579 4.27971 13.3445 6.07493 13.3778C4.67102 14.4778 2.90181 15.1344 0.979267 15.1344C0.647289 15.1344 0.320645 15.1151 0 15.0764C1.81588 16.2403 3.9724 16.9203 6.28958 16.9203C13.8364 16.9203 17.9635 10.668 17.9635 5.24638C17.9635 5.06839 17.9601 4.89107 17.9515 4.71575C18.7541 4.13579 19.45 3.41317 20 2.59056Z" fill="url(#paint0_linear_0_75)" />
    <defs>
        <linearGradient id="paint0_linear_0_75" x1="-3.58576e-08" y1="0.333354" x2="18.6667" y2="16.3334" gradientUnits="userSpaceOnUse">
            <stop stop-color="#2AF598" />
            <stop offset="0.0001" stop-color="#2AEE9B" />
            <stop offset="1" stop-color="#1F34E7" />
        </linearGradient>
    </defs>
</svg>