<svg viewBox="0 0 22 16" fill="none" xmlns="http://www.w3.org/2000/svg">
    <path fill-rule="evenodd" clip-rule="evenodd" d="M20.4171 1.64839C20.7496 1.98097 20.9893 2.39488 21.1122 2.8489C21.8196 5.69643 21.6561 10.1937 21.1259 13.1511C21.003 13.6051 20.7634 14.019 20.4308 14.3516C20.0982 14.6842 19.6843 14.9238 19.2303 15.0467C17.5682 15.5 10.8786 15.5 10.8786 15.5C10.8786 15.5 4.18908 15.5 2.52699 15.0467C2.07298 14.9238 1.65907 14.6842 1.32648 14.3516C0.993899 14.019 0.754245 13.6051 0.631389 13.1511C-0.0801491 10.3159 0.114907 5.81594 0.617654 2.86264C0.740508 2.40862 0.980161 1.99471 1.31275 1.66212C1.64533 1.32954 2.05924 1.08989 2.51326 0.967036C4.17534 0.513733 10.8649 0.5 10.8649 0.5C10.8649 0.5 17.5545 0.5 19.2165 0.953295C19.6706 1.07615 20.0845 1.31581 20.4171 1.64839ZM14.2852 8L8.73578 11.2143V4.78571L14.2852 8Z" fill="url(#paint0_linear_0_80)" />
    <defs>
        <linearGradient id="paint0_linear_0_80" x1="0.333323" y1="1" x2="21.6667" y2="15.6667" gradientUnits="userSpaceOnUse">
            <stop stop-color="#2AF598" />
            <stop offset="0.0001" stop-color="#2AEE9B" />
            <stop offset="1" stop-color="#1F34E7" />
        </linearGradient>
    </defs>
</svg>